<mxfile host="app.diagrams.net" modified="2024-03-11T01:44:02.409Z" agent="Mozilla/5.0 (Macintosh; Intel Mac OS X 10_15_7) AppleWebKit/537.36 (KHTML, like Gecko) Chrome/122.0.0.0 Safari/537.36" version="23.1.1" etag="hqAVMr01reuB7vFJKbTA" type="github">
  <diagram name="第 1 页" id="NPiqsugSLTiIb8ns10rd">
    <mxGraphModel>
      <root>
        <mxCell id="0" />
        <mxCell id="1" parent="0" />
      </root>
    </mxGraphModel>
  </diagram>
</mxfile>
